HIERARCHY
ROOT reference
{
  OFFSET 0 0 0
  CHANNELS 6 Xposition Yposition Zposition Zrotation Xrotation Yrotation
  JOINT Hips
  {
    OFFSET 0.400035 90.9797 91.4854
    CHANNELS 6 Xposition Yposition Zposition Zrotation Xrotation Yrotation
    JOINT Spine
    {
      OFFSET 0 7.57377 0
      CHANNELS 6 Xposition Yposition Zposition Zrotation Xrotation Yrotation
      JOINT Spine1
      {
        OFFSET 0 21.6353 0
        CHANNELS 6 Xposition Yposition Zposition Zrotation Xrotation Yrotation
        JOINT Neck
        {
          OFFSET 0 21.5464 1.95876
          CHANNELS 6 Xposition Yposition Zposition Zrotation Xrotation Yrotation
          JOINT Head
          {
            OFFSET 0 12.9308 -1.84726
            CHANNELS 6 Xposition Yposition Zposition Zrotation Xrotation Yrotation
            End Site
            {
              OFFSET 0 23.0907 0
            }
          }
        }
        JOINT LeftShoulder
        {
          OFFSET 3.70822 19.5981 -0.368577
          CHANNELS 6 Xposition Yposition Zposition Zrotation Xrotation Yrotation
          JOINT LeftArm
          {
            OFFSET 11.1726 0 0
            CHANNELS 6 Xposition Yposition Zposition Zrotation Xrotation Yrotation
            JOINT LeftForeArm
            {
              OFFSET 28.6421 0 0
              CHANNELS 6 Xposition Yposition Zposition Zrotation Xrotation Yrotation
              JOINT LeftHand
              {
                OFFSET 23.9346 0 0
                CHANNELS 6 Xposition Yposition Zposition Zrotation Xrotation Yrotation
                End Site
                {
                  OFFSET 13.8545 0 0
                }
              }
            }
          }
        }
        JOINT RightShoulder
        {
          OFFSET -3.63664 19.5981 -0.368577
          CHANNELS 6 Xposition Yposition Zposition Zrotation Xrotation Yrotation
          JOINT RightArm
          {
            OFFSET -11.1726 0 0
            CHANNELS 6 Xposition Yposition Zposition Zrotation Xrotation Yrotation
            JOINT RightForeArm
            {
              OFFSET -28.6421 0 0
              CHANNELS 6 Xposition Yposition Zposition Zrotation Xrotation Yrotation
              JOINT RightHand
              {
                OFFSET -23.9346 0 0
                CHANNELS 6 Xposition Yposition Zposition Zrotation Xrotation Yrotation
                End Site
                {
                  OFFSET -13.8545 0 0
                }
              }
            }
          }
        }
      }
    }
    JOINT LeftUpLeg
    {
      OFFSET 9.2363 0 0
      CHANNELS 6 Xposition Yposition Zposition Zrotation Xrotation Yrotation
      JOINT LeftLeg
      {
        OFFSET 0 -40.7061 0
        CHANNELS 6 Xposition Yposition Zposition Zrotation Xrotation Yrotation
        JOINT LeftFoot
        {
          OFFSET 0 -40.9975 0
          CHANNELS 6 Xposition Yposition Zposition Zrotation Xrotation Yrotation
          JOINT LeftToeBase
          {
            OFFSET 0 -6.00359 13.8545
            CHANNELS 6 Xposition Yposition Zposition Zrotation Xrotation Yrotation
            End Site
            {
              OFFSET 0 0 3.69452
            }
          }
        }
      }
    }
    JOINT RightUpLeg
    {
      OFFSET -9.2363 0 0
      CHANNELS 6 Xposition Yposition Zposition Zrotation Xrotation Yrotation
      JOINT RightLeg
      {
        OFFSET 0 -40.7061 0
        CHANNELS 6 Xposition Yposition Zposition Zrotation Xrotation Yrotation
        JOINT RightFoot
        {
          OFFSET 0 -40.9975 0
          CHANNELS 6 Xposition Yposition Zposition Zrotation Xrotation Yrotation
          JOINT RightToeBase
          {
            OFFSET 0 -6.00359 13.8545
            CHANNELS 6 Xposition Yposition Zposition Zrotation Xrotation Yrotation
            End Site
            {
              OFFSET 0 0 3.69452
            }
          }
        }
      }
    }
  }
}
MOTION
Frames:	10
Frame Time:	0.004
0 0 0 0 0 -0 -18.0505 81.3281 -122.212 0.99237 -2.40933 9.60621 -3.55271e-015 7.57377 0 0.623791 -3.60302 3.31983 0 21.6353 -1.42109e-014 -2.58421 1.89309 3.34288 3.55271e-015 21.5464 1.95876 -2.71424 19.5341 -5.3878 -7.10543e-015 12.9308 -1.84726 8.10723 3.78092 -4.80261 3.70822 19.5981 -0.368577 0.312277 11.7626 -6.01355 11.1726 -1.42109e-014 0 -75.2439 29.0884 -1.67275 28.6421 7.10543e-015 0 3.45663 -13.2932 -8.51533 23.9346 -7.10543e-015 0 15.5438 -13.9346 -6.71483 -3.63664 19.5981 -0.368577 -0.754185 7.7173 -7.29492 -11.1726 -1.42109e-014 0 48.7613 51.2978 34.1788 -28.6421 0 1.42109e-014 -14.3274 -14.2438 14.3002 -23.9346 -1.42109e-014 -1.42109e-014 -23.2902 -12.9422 2.26882 9.2363 1.42109e-014 0 -5.86103 -22.0508 -2.47321 0 -40.7061 0 1.26116 3.4687 11.9575 0 -40.9975 0 -8.7141 4.71992 -13.0095 -8.88178e-016 -6.00359 13.8545 -1.59028e-015 -3.18055e-015 -3.97569e-016 -9.2363 0 0 2.98311 17.1233 3.26795 -3.55271e-015 -40.7061 0 3.14517 8.19359 6.29959 3.55271e-015 -40.9975 0 -5.96574 -19.1844 -14.8042 0 -6.00359 13.8545 -3.47873e-016 -1.59028e-015 7.95139e-016 
0 0 0 0 0 -0 -17.969 81.3014 -121.792 1.05617 -2.44093 9.56748 3.55271e-015 7.57377 0 0.615694 -3.68047 3.31696 0 21.6353 0 -2.66942 1.97195 3.34309 0 21.5464 1.95876 -2.68511 19.5102 -5.37546 3.55271e-015 12.9308 -1.84726 8.07113 3.84702 -4.79682 3.70822 19.5981 -0.368577 0.31768 11.7486 -6.02076 11.1726 1.42109e-014 2.84217e-014 -75.2682 29.4815 -1.68176 28.6421 7.10543e-015 0 3.54758 -13.4128 -8.32418 23.9346 -3.55271e-015 0 15.7092 -14.0539 -6.64905 -3.63664 19.5981 -0.368577 -0.753258 7.71019 -7.25336 -11.1726 4.26326e-014 2.84217e-014 49.3979 50.5483 33.7311 -28.6421 7.10543e-015 0 -13.9735 -13.7484 14.4798 -23.9346 -7.10543e-015 0 -22.8765 -12.5178 2.57115 9.2363 -1.42109e-014 1.42109e-014 -6.01235 -21.9857 -2.67973 1.77636e-015 -40.7061 -1.42109e-014 1.31445 3.87242 11.6511 3.55271e-015 -40.9975 0 -8.79844 4.80958 -12.798 1.77636e-015 -6.00359 13.8545 -3.18055e-015 3.18055e-015 1.19271e-015 -9.2363 0 0 2.90354 17.3428 3.48454 -3.55271e-015 -40.7061 0 3.16062 8.38935 6.0995 -3.55271e-015 -40.9975 0 -5.62785 -19.2586 -14.6651 -3.55271e-015 -6.00359 13.8545 6.95746e-016 0 -0 
0 0 0 0 0 -0 -17.8817 81.2827 -121.371 1.13225 -2.46417 9.51726 3.55271e-015 7.57377 -1.42109e-014 0.55441 -3.75501 3.34703 0 21.6353 -1.42109e-014 -2.69044 2.0341 3.37659 -3.55271e-015 21.5464 1.95876 -2.68563 19.5541 -5.38697 0 12.9308 -1.84726 8.11134 3.78322 -4.80108 3.70822 19.5981 -0.368577 0.312388 11.7649 -6.04494 11.1726 1.42109e-014 0 -75.2031 29.4114 -1.73848 28.6421 -7.10543e-015 2.84217e-014 3.44125 -13.269 -8.2438 23.9346 3.55271e-015 -2.84217e-014 15.5766 -13.9122 -6.64502 -3.63664 19.5981 -0.368577 -0.735518 7.54605 -7.17757 -11.1726 -1.42109e-014 0 49.663 50.6419 33.3427 -28.6421 -1.42109e-014 0 -13.9868 -13.7523 14.5369 -23.9346 -1.42109e-014 -7.10543e-015 -22.9186 -12.5145 2.57295 9.2363 -1.42109e-014 0 -6.18253 -21.8842 -2.8799 -1.77636e-015 -40.7061 0 1.36321 4.22528 11.6408 -7.10543e-015 -40.9975 -1.42109e-014 -8.60434 4.84018 -12.9439 -1.77636e-015 -6.00359 13.8545 1.59028e-015 -6.36111e-015 -0 -9.2363 0 -1.42109e-014 2.75368 17.5719 3.82632 0 -40.7061 0 3.28339 8.54738 5.89821 3.55271e-015 -40.9975 0 -5.16265 -19.3816 -14.6357 -1.77636e-015 -6.00359 13.8545 -1.09332e-015 0 -0 
0 0 0 0 0 -0 -17.7901 81.2571 -120.932 1.21475 -2.51368 9.47422 0 7.57377 1.42109e-014 0.518845 -3.82458 3.35304 -3.55271e-015 21.6353 0 -2.76485 2.11203 3.38666 -1.06581e-014 21.5464 1.95876 -2.64327 19.5393 -5.37327 3.55271e-015 12.9308 -1.84726 8.09843 3.79014 -4.78699 3.70822 19.5981 -0.368577 0.313676 11.7038 -6.00438 11.1726 1.42109e-014 0 -75.2143 29.4642 -1.65918 28.6421 0 -2.84217e-014 3.39459 -13.0981 -8.22503 23.9346 0 0 15.6726 -13.7361 -6.53293 -3.63664 19.5981 -0.368577 -0.736314 7.44226 -7.14105 -11.1726 4.26326e-014 0 49.7001 51.1546 33.2808 -28.6421 0 0 -14.2923 -14.0398 14.3681 -23.9346 0 0 -23.088 -12.7613 2.43095 9.2363 0 0 -6.35098 -21.7474 -2.85918 1.77636e-015 -40.7061 0 1.43594 4.6293 10.9998 3.55271e-015 -40.9975 -1.42109e-014 -8.65204 4.79526 -12.6346 0 -6.00359 13.8545 1.2921e-015 6.36111e-015 1.59028e-015 -9.2363 0 1.42109e-014 2.64795 17.7742 3.7007 3.55271e-015 -40.7061 0 3.26182 8.83853 5.83302 3.55271e-015 -40.9975 -2.84217e-014 -4.69898 -19.4905 -14.2816 0 -6.00359 13.8545 6.95746e-016 0 1.59028e-015 
0 0 0 0 0 -0 -17.6998 81.2386 -120.498 1.29883 -2.52023 9.38344 0 7.57377 0 0.431874 -3.92681 3.40007 3.55271e-015 21.6353 -1.42109e-014 -2.75577 2.14513 3.43684 7.10543e-015 21.5464 1.95876 -2.58791 19.5791 -5.37886 0 12.9308 -1.84726 8.03317 3.79216 -4.79939 3.70822 19.5981 -0.368577 0.303172 11.7554 -6.05583 11.1726 1.42109e-014 0 -75.2077 29.4858 -1.71072 28.6421 7.10543e-015 0 3.37197 -12.9599 -8.10812 23.9346 -3.55271e-015 2.84217e-014 15.8792 -13.6054 -6.46384 -3.63664 19.5981 -0.368577 -0.73523 7.8015 -7.34025 -11.1726 -1.42109e-014 0 49.6155 50.7228 33.6501 -28.6421 0 0 -14.1179 -13.831 14.4052 -23.9346 -1.42109e-014 0 -22.8873 -12.5907 2.56391 9.2363 1.42109e-014 0 -6.51881 -21.5746 -3.11851 0 -40.7061 1.42109e-014 1.50939 4.88868 10.9232 -3.55271e-015 -40.9975 0 -8.7528 4.81184 -12.6531 1.77636e-015 -6.00359 13.8545 -2.28602e-015 -3.18055e-015 3.97569e-016 -9.2363 0 1.42109e-014 2.51271 17.9347 3.80645 3.55271e-015 -40.7061 0 3.27336 9.13454 5.91929 0 -40.9975 2.84217e-014 -4.44537 -19.4751 -14.2297 3.55271e-015 -6.00359 13.8545 1.09332e-015 0 7.95139e-016 
0 0 0 0 0 -0 -17.6185 81.2372 -120.06 1.37717 -2.46893 9.20423 0 7.57377 0 0.360477 -4.09244 3.48349 3.55271e-015 21.6353 0 -2.80367 2.19037 3.5242 -3.55271e-015 21.5464 1.95876 -2.56333 19.5671 -5.38316 0 12.9308 -1.84726 8.06984 3.84905 -4.80276 3.70822 19.5981 -0.368577 0.354935 11.7307 -6.04931 11.1726 2.84217e-014 0 -75.2447 29.5734 -1.67665 28.6421 7.10543e-015 2.84217e-014 3.33185 -12.8613 -8.04109 23.9346 -3.55271e-015 0 15.8474 -13.5069 -6.44115 -3.63664 19.5981 -0.368577 -0.683989 7.87024 -7.43021 -11.1726 0 0 49.3711 51.0701 33.846 -28.6421 -1.42109e-014 0 -14.2897 -13.9374 14.3681 -23.9346 -7.10543e-015 0 -22.7844 -12.6495 2.41727 9.2363 -1.42109e-014 -1.42109e-014 -6.62236 -21.4826 -2.95792 0 -40.7061 1.42109e-014 1.55194 5.22051 10.392 -1.77636e-015 -40.9975 0 -8.69247 4.81729 -12.3908 0 -6.00359 13.8545 -1.98785e-015 6.36111e-015 1.39149e-015 -9.2363 -2.84217e-014 0 2.36615 17.9953 3.86799 -3.55271e-015 -40.7061 0 3.22871 9.4808 6.02673 -3.55271e-015 -40.9975 0 -3.83842 -19.6115 -14.0698 -1.77636e-015 -6.00359 13.8545 -1.19271e-015 7.95139e-016 -7.95139e-016 
0 0 0 0 0 -0 -17.5353 81.2273 -119.608 1.43832 -2.49103 9.07296 -3.55271e-015 7.57377 0 0.303224 -4.19885 3.54388 -1.77636e-015 21.6353 0 -2.83015 2.23239 3.5879 3.55271e-015 21.5464 1.95876 -2.47956 19.5991 -5.40116 -3.55271e-015 12.9308 -1.84726 8.01656 3.86846 -4.82682 3.70822 19.5981 -0.368577 0.366348 11.7332 -6.08464 11.1726 2.84217e-014 0 -75.2381 29.5901 -1.65067 28.6421 -7.10543e-015 0 3.25744 -12.692 -7.9932 23.9346 3.55271e-015 2.84217e-014 15.9976 -13.342 -6.36163 -3.63664 19.5981 -0.368577 -0.649315 7.91163 -7.47056 -11.1726 1.42109e-014 0 49.3105 51.2953 33.8797 -28.6421 7.10543e-015 1.42109e-014 -14.2926 -14.0878 14.3801 -23.9346 7.10543e-015 0 -22.8485 -12.7656 2.24175 9.2363 1.42109e-014 0 -6.69949 -21.2653 -2.98409 0 -40.7061 1.42109e-014 1.57285 5.4866 10.0605 0 -40.9975 0 -8.65169 4.7033 -12.2916 1.77636e-015 -6.00359 13.8545 8.44835e-016 3.18055e-015 1.98785e-016 -9.2363 1.42109e-014 -1.42109e-014 2.26198 18.1565 4.01216 0 -40.7061 0 3.22034 9.76377 5.7914 0 -40.9975 0 -3.33814 -19.629 -13.7141 -5.32907e-015 -6.00359 13.8545 5.96354e-016 -7.95139e-016 -0 
0 0 0 0 0 -0 -17.4534 81.2231 -119.152 1.50525 -2.48693 8.92895 0 7.57377 1.42109e-014 0.224094 -4.34688 3.60519 0 21.6353 0 -2.82194 2.29802 3.65328 7.10543e-015 21.5464 1.95876 -2.47492 19.6123 -5.41166 -3.55271e-015 12.9308 -1.84726 8.01656 3.89212 -4.8396 3.70822 19.5981 -0.368577 0.363402 11.7775 -6.08693 11.1726 0 0 -75.268 29.7208 -1.65198 28.6421 0 0 3.32221 -12.5963 -7.94972 23.9346 3.55271e-015 0 16.1304 -13.2396 -6.28144 -3.63664 19.5981 -0.368577 -0.692391 7.97658 -7.50708 -11.1726 2.84217e-014 0 49.6278 51.097 33.7089 -28.6421 7.10543e-015 0 -14.1809 -13.9195 14.3833 -23.9346 2.13163e-014 0 -22.8532 -12.6472 2.42973 9.2363 1.42109e-014 0 -6.7863 -21.0119 -3.01323 0 -40.7061 1.42109e-014 1.60258 5.64527 9.92806 0 -40.9975 -1.42109e-014 -8.27109 4.56383 -12.5383 0 -6.00359 13.8545 -2.33572e-015 3.18055e-015 1.39149e-015 -9.2363 1.42109e-014 0 2.1483 18.2771 4.14442 -3.55271e-015 -40.7061 2.84217e-014 3.20016 10.0956 5.74802 3.55271e-015 -40.9975 0 -2.89748 -19.586 -13.6515 0 -6.00359 13.8545 -4.96962e-016 7.95139e-016 7.95139e-016 
0 0 0 0 0 -0 -17.3622 81.2208 -118.693 1.56361 -2.45854 8.77171 0 7.57377 1.42109e-014 0.172775 -4.50485 3.64987 1.77636e-015 21.6353 0 -2.85446 2.31721 3.7008 7.10543e-015 21.5464 1.95876 -2.41311 19.6225 -5.40234 -3.55271e-015 12.9308 -1.84726 7.96792 3.94692 -4.83724 3.70822 19.5981 -0.368577 0.400526 11.7648 -6.04036 11.1726 -2.84217e-014 0 -75.3352 29.6991 -1.58847 28.6421 0 0 3.26837 -12.3926 -7.92398 23.9346 0 0 15.9974 -13.0369 -6.30648 -3.63664 19.5981 -0.368577 -0.694321 7.76858 -7.38115 -11.1726 -2.84217e-014 0 50.1908 51.1811 33.0399 -28.6421 0 0 -14.1847 -13.877 14.4416 -23.9346 -1.42109e-014 -7.10543e-015 -22.6868 -12.5988 2.45823 9.2363 -1.42109e-014 0 -6.86973 -20.7669 -3.01118 0 -40.7061 1.42109e-014 1.64755 5.79877 9.77514 1.77636e-015 -40.9975 0 -8.00203 4.49122 -12.753 -1.77636e-015 -6.00359 13.8545 2.83268e-015 -3.18055e-015 1.98785e-016 -9.2363 0 0 2.01503 18.3615 4.18608 0 -40.7061 0 3.1654 10.4193 5.921 3.55271e-015 -40.9975 -2.84217e-014 -2.27306 -19.5728 -13.4972 -1.77636e-015 -6.00359 13.8545 8.94531e-016 -1.59028e-015 -7.95139e-016 
0 0 0 0 0 -0 -17.2717 81.22 -118.239 1.62518 -2.43498 8.59112 0 7.57377 -1.42109e-014 0.122505 -4.67046 3.71983 0 21.6353 -2.84217e-014 -2.89654 2.35349 3.77431 0 21.5464 1.95876 -2.31698 19.6349 -5.39913 0 12.9308 -1.84726 7.90791 3.98806 -4.8422 3.70822 19.5981 -0.368577 0.426413 11.8022 -6.02512 11.1726 0 0 -75.3369 29.7549 -1.61039 28.6421 0 0 3.21415 -12.2414 -7.82519 23.9346 0 0 16.0869 -12.8943 -6.28441 -3.63664 19.5981 -0.368577 -0.632003 8.13472 -7.6309 -11.1726 0 0 49.7247 51.0849 33.6439 -28.6421 0 0 -13.9223 -13.7964 14.5018 -23.9346 2.13163e-014 1.42109e-014 -22.8759 -12.5433 2.43729 9.2363 0 0 -6.91363 -20.4759 -3.24156 0 -40.7061 0 1.63805 5.82513 9.67543 1.77636e-015 -40.9975 0 -7.717 4.50839 -12.7882 0 -6.00359 13.8545 -1.44119e-015 0 -2.98177e-016 -9.2363 0 0 1.87088 18.4226 4.17173 3.55271e-015 -40.7061 0 3.15044 10.8366 6.0973 -3.55271e-015 -40.9975 0 -1.74702 -19.5878 -13.3575 -1.77636e-015 -6.00359 13.8545 1.49089e-015 1.59028e-015 -0 
